<svg viewBox="0 0 416 300" fill="none" xmlns="http://www.w3.org/2000/svg" class="inline-block h-6 text-sidebarAccent"><path fill-rule="evenodd" clip-rule="evenodd" d="m 335.13,249.687 c -26.067,15.965 -56.123,28.509 -90.166,37.631 -37.809,10.131 -73.445,14.192 -106.908,12.183 C 104.593,297.493 76.0827,288.763 52.5255,273.313 28.9682,257.863 13.0856,234.822 4.87788,204.19 -3.37692,173.383 -1.15457,145.444 11.5449,120.372 24.2444,95.3006 44.6055,73.617 72.6281,55.3209 100.651,37.0249 133.566,22.8114 171.375,12.6807 209.008,2.59678 244.501,-1.47294 277.854,0.471489 300.262,1.778 320.475,6.10779 338.49,13.4609 c 8.799,3.591 17.073,7.9031 24.824,12.9363 23.621,15.3393 39.536,38.325 47.744,68.957 8.208,30.6318 5.93,58.5388 -6.834,83.7218 -1.783,3.518 -3.714,6.97 -5.793,10.358 -1.468,-6.614 -4.418,-12.382 -8.849,-17.302 -2.175,-2.415 -4.593,-4.634 -7.255,-6.655 -5.451,-4.138 -11.924,-7.448 -19.418,-9.932 C 351.756,151.848 339.327,150 325.624,150 c -13.766,0 -26.242,1.832 -37.428,5.497 -11.185,3.665 -20.076,9.178 -26.673,16.539 -6.597,7.362 -9.895,16.651 -9.895,27.868 0,11.154 3.298,20.427 9.895,27.821 6.597,7.393 15.488,12.954 26.673,16.682 11.186,3.729 23.662,5.593 37.428,5.593 3.24,0 6.408,-0.104 9.506,-0.313 z M 215.876,229.828 c -2.613,2.804 -7.218,5.784 -13.814,8.939 -6.597,3.155 -14.548,5.816 -23.853,7.982 -9.305,2.167 -19.311,3.251 -30.019,3.251 -9.369,0 -18.547,-0.908 -27.533,-2.725 -8.987,-1.816 -17.113,-4.7 -24.379,-8.652 -7.2658,-3.951 -13.0497,-9.114 -17.3519,-15.487 -4.302,-6.374 -6.4531,-14.118 -6.4531,-23.232 0,-9.241 2.1511,-17.049 6.4531,-23.422 4.3022,-6.374 10.0861,-11.504 17.3519,-15.392 7.266,-3.888 15.392,-6.708 24.379,-8.461 8.986,-1.753 18.164,-2.629 27.533,-2.629 10.771,0 20.714,0.956 29.828,2.868 9.114,1.912 16.937,4.414 23.47,7.505 6.533,3.091 11.265,6.389 14.197,9.895 l -24.474,16.061 c -3.569,-3.888 -8.9871,-6.99469 -16.252,-9.321 -7.2661,-2.32669 -17.58156,-3.25056 -26.482,-3.49 -5.16019,-0.13882 -10.24607,0.39851 -15.44,1.195 -5.19407,0.79651 -9.86661,1.83908 -14.292,4.063 -3.92987,1.9749 -7.824,4.589 -10.469,8.031 -2.645,3.442 -3.967,7.807 -3.967,13.097 0,5.227 1.322,9.545 3.967,12.954 2.645,3.41 6.135,6.119 10.469,8.127 4.334,2.007 9.098,3.425 14.292,4.254 5.194,0.829 10.341,1.243 15.44,1.243 10.197,0 19.041,-1.275 26.529,-3.824 7.489,-2.55 12.763,-5.482 15.823,-8.796 z m 109.748,-3.729 c 13.321,0 23.646,-2.39 30.976,-7.17 7.329,-4.78 10.994,-11.121 10.994,-19.025 0,-8.094 -3.681,-14.451 -11.042,-19.072 -7.362,-4.621 -17.671,-6.931 -30.928,-6.931 -13.32,0 -23.693,2.31 -31.118,6.931 -7.425,4.621 -11.138,10.978 -11.138,19.072 0,8.031 3.713,14.404 11.138,19.121 7.425,4.716 17.798,7.074 31.118,7.074 z" fill="currentColor" id="path6" style="color:#008080;display:none;fill:#008080;fill-opacity:1;stroke:none;stroke-opacity:1"></path>
  <path id="path1" style="display:inline;fill:#008080;fill-opacity:1;stroke:none;stroke-opacity:1" d="M 265.24609,0.0234375 C 235.59427,-0.36233975 204.30369,3.8582614 171.375,12.681641 133.56624,22.812275 100.65163,37.024426 72.628906,55.320312 44.606474,73.616304 24.244344,95.299864 11.544922,120.37109 c -12.6993944,25.07188 -14.9227191,53.01154 -6.6679689,83.81836 8.2076719,30.63182 24.0912759,53.67317 47.6484379,69.12305 23.557056,15.44988 52.068429,24.18151 85.531249,26.18945 33.46282,2.009 69.09944,-2.05265 106.9082,-12.18359 15.17909,-4.06732 29.51889,-8.85645 43.10938,-14.28711 5.7e-4,-3.1e-4 10e-4,3.1e-4 0.002,0 44.71357,-23.78576 56.47436,-29.59799 79.50977,-51.94531 v -21.05078 c 2.3e-4,-0.0446 0.008,-0.0861 0.008,-0.13086 0,-0.0462 -0.008,-0.0887 -0.008,-0.13477 v -0.50781 h -0.0293 c -0.19474,-7.78194 -3.84312,-13.93438 -11.00391,-18.42969 -7.36194,-4.62094 -17.6728,-6.93164 -30.92968,-6.93164 -13.31994,0 -23.69225,2.3107 -31.11719,6.93164 -7.223,4.49532 -10.90505,10.64774 -11.10156,18.42969 h -0.0312 v 0.54297 c -1.4e-4,0.0341 -0.006,0.0655 -0.006,0.0996 0,0.0341 0.006,0.0656 0.006,0.0996 v 50.1582 H 251.63672 V 234.875 h 0.0156 v -34.34961 c -0.002,-0.21018 -0.0234,-0.40956 -0.0234,-0.62109 0,-0.13023 0.0223,-0.24742 0.0234,-0.37696 V 80.498047 H 278.4785 V 80.5 h 4.6289 v 76.97461 c 1.67064,-0.68027 3.30003,-1.39268 5.08789,-1.97852 C 299.38125,151.83115 311.85711,150 325.62305,150 c 13.70288,0 26.13221,1.84798 37.28515,5.54492 7.494,2.484 13.96703,5.7937 19.41797,9.93164 2.662,2.021 5.08086,4.24125 7.25586,6.65625 4.42963,4.91848 7.3792,10.68355 8.84766,17.29492 4.5e-4,0.002 0.002,0.004 0.002,0.006 2.079,-3.38794 4.00997,-6.83942 5.79297,-10.35742 12.76394,-25.18282 15.04198,-53.09104 6.83398,-83.722654 C 402.8507,64.721836 386.93538,41.735834 363.3145,26.396624 355.56356,21.363454 347.28928,17.052054 338.49028,13.461078 320.47535,6.1078694 300.26134,1.7772063 277.85352,0.47070312 273.68439,0.22765099 269.48209,0.07854853 265.24609,0.0234375 Z M 148.18945,150.00586 c 10.77095,0 20.71418,0.95714 29.82813,2.86914 9.11395,1.912 16.93775,4.41291 23.4707,7.50391 6.53295,3.09095 11.26336,6.39048 14.19531,9.89648 l -24.47265,16.06055 c -3.569,-3.888 -8.98706,-6.99401 -16.25196,-9.32032 -7.26605,-2.32664 -17.58203,-3.25079 -26.48242,-3.49023 -5.16014,-0.13882 -10.24557,0.39882 -15.43945,1.19531 -5.19407,0.79651 -9.86758,1.83863 -14.29297,4.0625 -3.92987,1.9749 -7.82375,4.5893 -10.46875,8.03125 -2.645,3.442 -3.9668,7.80571 -3.9668,13.09571 0,5.22695 1.3218,9.54612 3.9668,12.95507 2.645,3.41 6.13475,6.11896 10.46875,8.12696 4.334,2.007 9.09897,3.4249 14.29297,4.2539 5.19395,0.829 10.3405,1.24219 15.43945,1.24219 10.19695,0 19.04135,-1.27522 26.5293,-3.82422 7.48895,-2.54995 12.76231,-5.48092 15.82226,-8.79492 l 25.04688,15.96484 c -2.613,2.804 -7.2185,5.78446 -13.81445,8.93946 -6.597,3.15495 -14.54657,5.81642 -23.85157,7.98242 -9.30495,2.167 -19.31158,3.25 -30.01953,3.25 -9.36895,0 -18.54725,-0.90761 -27.5332,-2.72461 -8.98695,-1.816 -17.11294,-4.70039 -24.378906,-8.65234 -7.265765,-3.951 -13.049383,-9.11338 -17.351563,-15.48633 -4.301975,-6.374 -6.453125,-14.11847 -6.453125,-23.23242 0,-9.24095 2.15115,-17.04893 6.453125,-23.42188 4.30218,-6.37395 10.085798,-11.50267 17.351563,-15.39062 7.265966,-3.888 15.391956,-6.70794 24.378906,-8.46094 8.98595,-1.753 18.16425,-2.63086 27.5332,-2.63086 z"></path>
</svg>
